<?xml version="1.0" ?><svg id="Layer_1" style="enable-background:new 0 0 100 100;" version="1.1" viewBox="0 0 100 100" xml:space="preserve" xmlns="http://www.w3.org/2000/svg" xmlns:xlink="http://www.w3.org/1999/xlink"><g><path d="M49.7,74.6c-0.3,0-0.5,0-0.7-0.1c-0.1,0-0.2,0-0.3-0.1c-0.7-0.2-1.4-0.6-1.9-1.1L10.5,36.2c-0.8-0.8-1.2-1.9-1.2-3   c0-1.1,0.5-2.2,1.3-3l3.8-3.7c1.7-1.6,4.3-1.6,6,0.1L49.9,57l30-30c1.6-1.6,4.3-1.6,6,0l3.7,3.7c1.6,1.7,1.6,4.3,0,6L52.7,73.5   c-0.3,0.3-0.6,0.5-1,0.7c-0.1,0-0.2,0.1-0.2,0.1l-0.2,0.1c-0.2,0.1-0.4,0.1-0.7,0.2C50.3,74.6,50,74.6,49.7,74.6z M17.3,27.4   c-0.6,0-1.1,0.2-1.5,0.6l-3.8,3.7c-0.9,0.9-0.9,2.3,0,3.1L48.2,72c0.3,0.3,0.6,0.5,1,0.6c0.1,0,0.1,0,0.1,0l0.1,0   c0.2,0,0.5,0,0.8,0c0.1,0,0.2-0.1,0.3-0.1c0,0,0.1,0,0.1-0.1l0.1,0c0.2-0.1,0.4-0.2,0.5-0.4l1.1-1l35.7-35.7c0.9-0.9,0.9-2.3,0-3.1   l-3.7-3.7c-0.9-0.9-2.3-0.9-3.1,0L49.8,59.8L18.8,28C18.4,27.6,17.8,27.4,17.3,27.4z"/></g></svg>